inDegrees=no
num_controls=7
num_derivatives=13
num_iterations=137
num_multipliers=7
num_parameters=0
num_slacks=7
num_states=26
objective=0.545942
objective_accelerations=0.041282
objective_balance=0.003728
objective_effort=0.040359
objective_height=0.451111
objective_ligament=0.009462
solver_duration=1393.316102
status=Solve_Succeeded
success=true
DataType=double
version=3
OpenSimVersion=4.5
endheader
time	/jointset/ground_pelvis/pelvis_tilt/value	/jointset/ground_pelvis/pelvis_tx/value	/jointset/ground_pelvis/pelvis_ty/value	/jointset/hip_r/hip_flexion_r/value	/jointset/hip_r/hip_adduction_r/value	/jointset/hip_r/hip_rotation_r/value	/jointset/back/lumbar_extension/value	/jointset/patellofemoral_r/patellar_flexion_r/value	/jointset/knee_r/knee_flexion_r/value	/jointset/knee_r/knee_adduction_r/value	/jointset/knee_r/knee_rotation_r/value	/jointset/ankle_r/ankle_angle_r/value	/jointset/subtalar_r/subtalar_angle_r/value	/jointset/ground_pelvis/pelvis_tilt/speed	/jointset/ground_pelvis/pelvis_tx/speed	/jointset/ground_pelvis/pelvis_ty/speed	/jointset/hip_r/hip_flexion_r/speed	/jointset/hip_r/hip_adduction_r/speed	/jointset/hip_r/hip_rotation_r/speed	/jointset/back/lumbar_extension/speed	/jointset/patellofemoral_r/patellar_flexion_r/speed	/jointset/knee_r/knee_flexion_r/speed	/jointset/knee_r/knee_adduction_r/speed	/jointset/knee_r/knee_rotation_r/speed	/jointset/ankle_r/ankle_angle_r/speed	/jointset/subtalar_r/subtalar_angle_r/speed	/forceset/tau_hip_flexion_r	/forceset/tau_hip_adduction_r	/forceset/tau_hip_rotation_r	/forceset/tau_knee_flexion_r	/forceset/tau_ankle_angle_r	/forceset/tau_subtalar_angle_r	/forceset/tau_lumbar_extension	lambda_cid13_p0	lambda_cid14_p0	lambda_cid14_p1	lambda_cid14_p2	lambda_cid14_p3	lambda_cid14_p4	lambda_cid14_p5	/jointset/ground_pelvis/pelvis_tilt/accel	/jointset/ground_pelvis/pelvis_tx/accel	/jointset/ground_pelvis/pelvis_ty/accel	/jointset/hip_r/hip_flexion_r/accel	/jointset/hip_r/hip_adduction_r/accel	/jointset/hip_r/hip_rotation_r/accel	/jointset/back/lumbar_extension/accel	/jointset/patellofemoral_r/patellar_flexion_r/accel	/jointset/knee_r/knee_flexion_r/accel	/jointset/knee_r/knee_adduction_r/accel	/jointset/knee_r/knee_rotation_r/accel	/jointset/ankle_r/ankle_angle_r/accel	/jointset/subtalar_r/subtalar_angle_r/accel	gamma_cid13_p0	gamma_cid14_p0	gamma_cid14_p1	gamma_cid14_p2	gamma_cid14_p3	gamma_cid14_p4	gamma_cid14_p5
1.5	-0.2201542550985915	0.009560114748489735	0.8507371639036925	0.858778907354303	-0.2257994701471657	-0.1422673613544998	-0.3035418691697684	0.6504742415069178	0.650474241506924	0.03825687391624331	0.1745203591087147	0.1792446289481082	0.03866398533903875	0.5360807337928666	0.229579818293552	0.3949672926045097	-1.946781611014196	0.01418166142276799	-0.2938845156389312	0.6969159861641262	-1.740901815928702	-1.740901815928699	0.2703597395179745	-5.313288474153671e-05	-0.4106387157343026	-0.08851743083729548	-0.1388358263360667	-0.0194123279048666	0.00761805899176907	-0.2953631796005443	0.103423953363847	-0.01084880175472866	0.1725831967793463	-34.06572739996211	-8.482090298506018	-1.897260734085084	-4.148649850056206	-1.909956665299989	-658.9345406390836	57.16210006065656	0.2614240060194269	0.5121439631856475	-0.4486450032480551	-1.128966565547213	0.007953219244794389	-0.4964867160719558	1.620074095347416	-1.083787384715724	-1.083787384715725	0.4499773178160583	0.001530106805054308	-0.3353186156631384	-0.04092197936973521	1.291048243440935e-07	1.784171148164018e-07	-5.006375800591233e-07	1.200594720709263e-06	-4.845650096075694e-08	2.490093467915089e-07	-5.023820878593319e-07
1.51	-0.2147808928646666	0.01188120542361796	0.8546635490368488	0.8392568935842492	-0.2256581797881119	-0.145229956257299	-0.296493099950161	0.6330134271246088	0.6330134271246105	0.04098513308835153	0.1745200674975971	0.17512177186266	0.03777570363754678	0.5385136808950848	0.2346021254573536	0.3902230930452944	-1.957339683097347	0.01407305242478662	-0.298607019795705	0.7127208683980466	-1.751001433572648	-1.751001433572643	0.2752829917196063	-1.588828871836696e-05	-0.4138712521086791	-0.08912590652040858	-0.1310083237296538	-0.02111243355133888	0.006998242907286841	-0.2926177500582561	0.1056543155056196	-0.01144184192222958	0.1657641007672404	-34.97032987208993	-7.568059965014449	-1.895967440884551	-4.261721013309063	-2.123218738838162	-654.7441875977554	57.29626656116022	0.2225440957476037	0.4918360667806211	-0.5002487423300009	-0.976983950500241	-0.02064300857611176	-0.4557963268613257	1.543146883521083	-0.9341328434790616	-0.9341328434787366	0.5121131162650379	0.003457858090360195	-0.3079926822182816	-0.06880209621493309	1.36075567459e-07	1.849970885447016e-07	-5.509772045152132e-07	1.244236085837649e-06	-4.728066222184053e-08	2.656257663440477e-07	-5.514894615544894e-07
1.52	-0.2093855383530344	0.01425143156514485	0.8585399039123988	0.8196377478092035	-0.2255180505288892	-0.148238909013942	-0.2892897915889932	0.6154593997880113	0.6154593997880085	0.04376234757146167	0.1745198755768577	0.1709684351066894	0.03688173883253712	0.5404791893342871	0.2394069115732836	0.3849612410832328	-1.966208012012544	0.0139494414565452	-0.303156086407723	0.7278238144762366	-1.759544406786395	-1.759544406786388	0.2801508017183703	-3.319480911798113e-05	-0.4167346498387906	-0.08965405154083542	-0.1231808211232129	-0.02281253919781119	0.006378426822805111	-0.2898723205159679	0.1078846776473922	-0.01203488208973055	0.1589450047551344	-35.8428563416516	-6.661588176706174	-1.892886668278505	-4.378631442958727	-2.337044699524906	-650.6772578628819	57.50784561393995	0.1679362734163262	0.4686397536113315	-0.5521754838173338	-0.7910179319561892	0.004952825192813586	-0.4617992071202859	1.479686864201384	-0.772458498676014	-0.7724584986760145	0.4388888772425135	-0.009380116479428	-0.2614908868101384	-0.02485584683251522	1.444318032513995e-07	1.880213136420502e-07	-6.385460154508355e-07	1.265264446342053e-06	-4.004771554071295e-08	2.800859213392102e-07	-6.108176171774427e-07
1.53	-0.2039728980958228	0.01666857919857983	0.8623611159884952	0.7999383910136144	-0.2253792953958475	-0.1512928885129532	-0.2819391051935126	0.5978277724724098	0.5978277724724135	0.04658784255959574	0.1745196116859835	0.1667883333133126	0.03598283636443337	0.5419661880343931	0.2439818833313611	0.3792007277999179	-1.973372207631121	0.01379908889123539	-0.3076213977032254	0.7421822485602371	-1.766511764569633	-1.766511764569632	0.2849285992689251	-2.038235328054044e-05	-0.4192186214401963	-0.09011111706128458	-0.1151878767898976	-0.02476954799663351	0.005772696257768844	-0.2874639975329757	0.1105591661672113	-0.01278810271222316	0.1520021600703262	-36.67872126572875	-5.631120891583285	-1.942751925210545	-4.481285565278889	-2.612615907584654	-646.7865292202293	57.69084000589874	0.1266989714248314	0.4458123072437464	-0.5999964470428347	-0.635425144465645	-0.02530428079879779	-0.4358960523156278	1.394239271554222	-0.6185125578599615	-0.6185125578606211	0.4942302188244238	0.006734087110552928	-0.2317702907846925	-0.0538164544568002	1.542601250136351e-07	1.872675558190134e-07	-7.656708370209604e-07	1.262266489433479e-06	-2.637909167098606e-08	2.922550452421607e-07	-6.810053535986791e-07
1.54	-0.1985478643909876	0.01913025383366314	0.8661223214924676	0.7801761313083081	-0.2252420987851401	-0.1543909209172294	-0.274448770938981	0.5801345439510336	0.5801345439510435	0.04946051652820781	0.1745195003517667	0.162585407805126	0.03507982633116399	0.5429578788590195	0.2483123119029496	0.3729599266584332	-1.978788593955984	0.01363773698968884	-0.3119666674607441	0.7557533862864317	-1.771864647941362	-1.77186464794136	0.2895865978139783	-2.683477636850385e-06	-0.4212993928007582	-0.09047556457396105	-0.1071949324565823	-0.02672655679545585	0.005166965692732632	-0.2850556745499835	0.1132336546870305	-0.01354132333471576	0.145059315385518	-37.4733521818911	-4.608846854830086	-1.990705940186758	-4.588066924974337	-2.886565120230801	-643.0294376540586	57.95604287296822	0.0688746983203808	0.4197311163135064	-0.6482330554512192	-0.4414560732133246	0.002752957945467328	-0.4377908995235493	1.322227592640266	-0.4495636163744348	-0.4495636163731644	0.414929076142194	-0.008402832518444384	-0.180850838641381	-0.006332245277978156	1.636113269989356e-07	1.859629905720926e-07	-8.853620511199561e-07	1.257062429105365e-06	-1.300184832833125e-08	3.017576031737723e-07	-7.458391053070543e-07
